<?xml version="1.0" standalone="no"?>
<!DOCTYPE svg PUBLIC "-//W3C//DTD SVG 20010904//EN" "http://www.w3.org/TR/2001/REC-SVG-20010904/DTD/svg10.dtd">
<svg version="1.0" xmlns="http://www.w3.org/2000/svg" width="1279.000000pt" height="418.000000pt"
    viewBox="0 0 1279.000000 418.000000" preserveAspectRatio="xMidYMid meet">

    <g transform="translate(0.000000,418.000000) scale(0.100000,-0.100000)" fill="#55B685" stroke="none">
        <path d="M1075 3740 c-592 -264 -981 -442 -999 -458 -51 -48 -66 -95 -66 -217
0 -656 228 -1357 623 -1913 295 -415 684 -760 1132 -1005 172 -94 275 -137
327 -137 77 0 321 123 571 287 721 474 1238 1227 1427 2078 50 227 80 482 80
690 0 122 -14 168 -66 217 -18 17 -389 187 -989 454 -811 361 -969 428 -1015
431 -54 4 -73 -4 -1025 -427z m1862 -377 l823 -365 -6 -72 c-32 -429 -133
-796 -315 -1157 -272 -537 -692 -969 -1235 -1268 l-111 -61 -89 47 c-542 284
-986 735 -1263 1282 -184 364 -282 721 -315 1157 l-6 71 833 371 c457 204 839
368 847 366 8 -3 385 -170 837 -371z" />
        <path d="M2760 2769 c-33 -15 -136 -111 -397 -372 l-353 -351 -167 166 c-176
174 -198 188 -283 188 -84 -1 -169 -72 -190 -161 -10 -39 -9 -58 4 -101 14
-49 33 -70 273 -310 142 -141 271 -262 286 -267 45 -17 126 -13 171 9 27 13
192 171 482 462 375 378 442 449 452 484 24 84 7 156 -49 213 -62 62 -148 77
-229 40z" />
        <path d="M9901 2769 c-76 -13 -132 -40 -180 -88 -93 -93 -111 -170 -111 -478
l0 -233 -80 0 -80 0 0 -100 0 -100 80 0 80 0 0 -365 0 -365 115 0 115 0 0 365
0 365 145 0 145 0 0 100 0 100 -146 0 -145 0 3 253 c3 233 5 255 24 287 43 73
136 102 209 64 34 -18 32 -20 93 88 l33 58 -43 20 c-40 18 -154 41 -188 39 -8
-1 -39 -5 -69 -10z" />
        <path d="M5213 2583 c321 -761 682 -1610 686 -1615 5 -5 710 1640 719 1679 3
11 -20 13 -134 11 l-138 -3 -211 -553 c-117 -304 -215 -554 -219 -555 -4 -1
-108 248 -230 553 l-223 555 -141 3 -142 3 33 -78z" />
        <path d="M9004 2421 c-53 -24 -74 -55 -74 -107 0 -127 187 -167 246 -53 32 62
7 130 -59 160 -52 23 -62 23 -113 0z" />
        <path d="M10474 2421 c-53 -24 -74 -55 -74 -107 0 -127 187 -167 246 -53 32
62 7 130 -59 160 -52 23 -62 23 -113 0z" />
        <path d="M7210 1995 c-192 -47 -339 -185 -384 -360 -59 -224 46 -469 241 -565
81 -40 205 -63 296 -56 76 7 206 46 260 79 l35 22 -50 82 -50 81 -76 -36 c-66
-31 -87 -36 -147 -36 -51 0 -84 6 -120 23 -50 22 -125 86 -125 106 0 6 162 67
361 135 l360 124 -6 36 c-22 115 -132 268 -233 323 -98 53 -246 70 -362 42z
m208 -181 c20 -8 52 -29 70 -47 34 -33 77 -95 71 -102 -6 -5 -509 -185 -520
-185 -14 0 -11 69 6 135 34 129 142 215 271 215 36 0 81 -7 102 -16z" />
        <path d="M8630 2003 c-90 -16 -251 -128 -302 -211 l-23 -37 -7 40 c-4 22 -7
60 -8 85 -1 91 1 90 -111 90 l-99 0 0 -470 0 -470 109 0 109 0 4 243 c3 237 4
243 30 299 52 113 154 192 265 206 54 7 58 9 64 37 9 43 10 195 2 194 -5 -1
-19 -4 -33 -6z" />
        <path d="M11320 1995 c-192 -47 -339 -185 -384 -360 -59 -224 46 -469 241
-565 81 -40 205 -63 296 -56 76 7 206 46 260 79 l35 22 -50 82 -50 81 -76 -36
c-66 -31 -87 -36 -147 -36 -51 0 -84 6 -120 23 -50 22 -125 86 -125 106 0 6
162 67 361 135 l360 124 -6 36 c-22 115 -132 268 -233 323 -98 53 -246 70
-362 42z m208 -181 c20 -8 52 -29 70 -47 34 -33 77 -95 71 -102 -6 -5 -509
-185 -520 -185 -14 0 -11 69 6 135 34 129 142 215 271 215 36 0 81 -7 102 -16z" />
        <path d="M12740 2003 c-90 -16 -251 -128 -302 -211 l-23 -37 -7 40 c-4 22 -7
60 -8 85 -1 91 1 90 -111 90 l-99 0 0 -470 0 -470 109 0 109 0 4 243 c3 237 4
243 30 299 52 113 154 192 265 206 54 7 58 9 64 37 9 43 10 195 2 194 -5 -1
-19 -4 -33 -6z" />
        <path d="M8940 1500 l0 -470 115 0 115 0 0 470 0 470 -115 0 -115 0 0 -470z" />
        <path d="M10410 1500 l0 -470 115 0 115 0 0 470 0 470 -115 0 -115 0 0 -470z" />
    </g>
</svg>